<svg xmlns="http://www.w3.org/2000/svg" version="1.1" xmlns:xlink="http://www.w3.org/1999/xlink" xmlns:svgjs="http://svgjs.dev/svgjs" width="1000" height="1000" viewBox="0 0 1000 1000"><g transform="matrix(1,0,0,1,-0.14221556886212738,-0.14221556886229791)"><svg viewBox="0 0 334 334" data-background-color="#ffffff" preserveAspectRatio="xMidYMid meet" height="1000" width="1000" xmlns="http://www.w3.org/2000/svg" xmlns:xlink="http://www.w3.org/1999/xlink"><g id="tight-bounds" transform="matrix(1,0,0,1,0.04749999999998522,0.04750000000001364)"><svg viewBox="0 0 333.90454557049503 333.90454557049503" height="333.90454557049503" width="333.90454557049503"><g><svg></svg></g><g><svg viewBox="0 0 333.90454557049503 333.90454557049503" height="333.90454557049503" width="333.90454557049503"><g><path d="M0 166.952c0-92.205 74.747-166.952 166.952-166.952 92.205 0 166.952 74.747 166.953 166.952 0 92.205-74.747 166.952-166.953 166.953-92.205 0-166.952-74.747-166.952-166.953zM166.952 316.63c82.665 0 149.677-67.013 149.678-149.678 0-82.665-67.013-149.677-149.678-149.677-82.665 0-149.677 67.013-149.677 149.677 0 82.665 67.013 149.677 149.677 149.678z" data-fill-palette-color="tertiary" fill="#c10000" stroke="transparent"></path><ellipse rx="160.27418187383762" ry="160.27418187383762" cx="166.95227278524752" cy="166.95227278524752" fill="#c10000" stroke="transparent" stroke-width="0" fill-opacity="1" data-fill-palette-color="tertiary"></ellipse></g><g transform="matrix(1,0,0,1,94.27882102588804,71.17305217166896)"><svg viewBox="0 0 145.34690351871896 191.55844122715712" height="191.55844122715712" width="145.34690351871896"><g><svg viewBox="0 0 145.34690351871896 191.55844122715712" height="191.55844122715712" width="145.34690351871896"><g><svg viewBox="0 0 145.34690351871896 191.55844122715712" height="191.55844122715712" width="145.34690351871896"><g><svg viewBox="0 0 145.34690351871896 191.55844122715712" height="191.55844122715712" width="145.34690351871896"><g id="textblocktransform"><svg viewBox="0 0 145.34690351871896 191.55844122715712" height="191.55844122715712" width="145.34690351871896" id="textblock"><g><svg viewBox="0 0 145.34690351871896 191.55844122715712" height="191.55844122715712" width="145.34690351871896"><g transform="matrix(1,0,0,1,0,0)"><svg width="145.34690351871896" viewBox="4.400000095367432 -37.099998474121094 28.149999618530273 37.099998474121094" height="191.55844122715712" data-palette-color="#ffffff"><path d="M32.05-1.05L32.05-1.05Q32.2-0.65 32.02-0.33 31.85 0 31.45 0L31.45 0 26.6 0Q26 0 25.7-0.7L25.7-0.7 19.6-15.9Q19.35-16.5 18.35-16.5L18.35-16.5 11.05-16.5Q10.7-16.5 10.58-16.32 10.45-16.15 10.45-15.95L10.45-15.95 10.45-0.9Q10.45 0 9.5 0L9.5 0 5.25 0Q4.75 0 4.58-0.2 4.4-0.4 4.4-0.8L4.4-0.8 4.4-36.35Q4.4-37.1 5.1-37.1L5.1-37.1 19.55-37.1Q25.7-37.1 29.13-34.6 32.55-32.1 32.55-27.3L32.55-27.3Q32.55-24.55 31.5-22.58 30.45-20.6 28.83-19.38 27.2-18.15 25.35-17.6L25.35-17.6Q25-17.45 25.15-17L25.15-17 32.05-1.05ZM18.35-20.75L18.35-20.75Q22.25-20.75 24.28-22.23 26.3-23.7 26.3-26.85L26.3-26.85Q26.3-29.85 24.45-31.35 22.6-32.85 19.2-32.85L19.2-32.85 11.25-32.85Q10.45-32.85 10.45-32.25L10.45-32.25 10.45-21.45Q10.45-20.75 11-20.75L11-20.75 18.35-20.75Z" opacity="1" transform="matrix(1,0,0,1,0,0)" fill="#ffffff" class="undefined-text-0" data-fill-palette-color="quaternary" id="text-0"></path></svg></g></svg></g></svg></g></svg></g><g></g></svg></g></svg></g></svg></g></svg></g><defs></defs></svg><rect width="333.90454557049503" height="333.90454557049503" fill="none" stroke="none" visibility="hidden"></rect></g></svg></g></svg>